<?xml version="1.0" encoding="iso-8859-1"?>
<!-- Generator: Adobe Illustrator 21.0.2, SVG Export Plug-In . SVG Version: 6.00 Build 0)  -->
<svg version="1.1" id="Calque_1" xmlns="http://www.w3.org/2000/svg" xmlns:xlink="http://www.w3.org/1999/xlink" x="0px" y="0px"
	 width="576px" height="576px" viewBox="0 0 576 576" enable-background="new 0 0 576 576" xml:space="preserve">
<g>
	<path fill="#1A1A1A" d="M293.014,423.013c-3.349,0-6.644,0-9.91,0c-0.843,1.055-0.426,2.069-0.142,3.079
		c1.052,3.746,1.994,7.534,2.07,11.432c0.046,2.374-0.065,4.839-0.654,7.121c-1.481,5.736-6.722,8.266-12.239,6.089
		c-1.434-0.566-2.794-1.36-4.111-2.173c-3.213-1.985-4.845-0.514-8.81,0.819c-5.386,1.811-9.396-0.988-12.173-5.841
		c-1.075-1.88-2.609-2.686-4.73-2.493c-3.081,0.281-8.85,0.819-9.917,0.798c-12.488-0.237-14.705-16.211-2.454-25.95
		c3.323-2.642,7.33-3.645,3.082-5.725c-30.129-14.749-41.637-40.176-45.013-42.781c-1.131-0.873-1.849-0.694-2.531,0.581
		c-2.439,4.562-0.757,2.219-7.926,14c-3.685,6.055-7.422,5.901-10.463,2.757c-1.81-1.872-3.459-3.922-5.009-6.019
		c-17.461-23.632-29.272-58.122-24.785-87.156c1.633-10.567,5.94-19.7,14.508-26.451c4.295-3.384,2.007-7.846,2.969-28.412
		c1.28-27.367,6.436-53.938,16.857-79.372c3.225-7.87,7.049-15.425,12.538-22.003c6.99-8.377,15.419-14.429,24.267-8.375
		c2.667,1.825,4.876,4.126,6.451,6.922c9.05,16.068,8.153,23.828,14.904,24.862c17.945,2.748,13.328,0.085,98.014,1.237
		c5.886,0.08,12.934,0.316,18.953-1.332c2-0.547,3.579-1.695,4.552-3.539c4.712-8.928,7.381-21.796,16.03-27.946
		c24.757-17.601,55.361,54.93,54.401,126.762c-0.074,5.549-0.916,8.46,3.063,11.643c10.164,8.133,14.025,20.236,14.767,33.218
		c1.603,28.034-10.081,59.177-25.983,80.504c-4.982,6.681-9.086,10.982-14.007,4.216c-10.258-14.101-8.415-21.713-14.162-12.76
		c-12.914,20.12-26.289,31.163-41.664,39.084c-0.977,0.503-2.346,0.785-2.458,2.089c-0.114,1.317,1.321,1.494,2.149,2.034
		c15.774,10.29,12.988,27.857,0.177,27.893c-2.799,0.008-2.487-0.412-10.976-0.727c-2.609-0.097-3.034,1.998-5.19,4.766
		c-3.007,3.86-6.64,4.913-11.256,3.305c-4-1.393-5.105-2.327-7.637-0.875c-2.927,1.679-5.664,3.503-9.019,3.222
		c-3.79-0.318-6.696-2.796-7.861-6.708c-1.871-6.285,0.056-12.725,1.46-18.77C293.369,425.081,293.766,424.142,293.014,423.013z
		 M162.311,256.708c0.025,2.312,0.889,3.012,3.176,2.764c8.215-0.888,15.175,1.75,20.904,7.612
		c18.454,18.886,12.325,58.06,5.534,83.556c-0.838,3.146-0.658,6.261,1.24,9.151c5.593,8.517,17.861,33.302,49.899,46.407
		c15.193,6.215,34.899,9.364,46.498,8.999c12.857-0.405,25.406-2.69,37.576-6.819c26.383-8.951,43.298-26.068,56.611-50.153
		c1.177-2.129,0.876-6.158,0.242-8.497c-3.818-14.097-6.103-28.434-6.49-43.046c-0.19-7.165,0.542-14.244,2.339-21.197
		c3.257-12.602,11.543-24.331,24.507-25.916c5.854-0.716,9.175,1.44,9.426-2.514c0.569-8.974-0.409-23.798-1.217-32.803
		c-1.496-16.666-4.772-32.966-9.865-48.899c-4.569-14.295-12.002-34.147-24.71-42.13c-2.224-1.397-4.431-1.096-6.471,0.561
		c-3.576,2.904-4.521,5.226-8.616,14.381c-4.11,9.19-5.201,16.018-15.125,18.287c-5.065,1.158-10.202,1.531-15.365,1.39
		c-62.575-1.716-85.96,0.859-99.59-0.524c-8.328-0.845-14.165-4.7-17.039-12.744c-1.044-2.923-2.244-5.797-3.509-8.632
		c-2.892-6.477-3.984-8.611-7.787-12.17c-1.848-1.73-4.103-1.945-6.258-0.612c-10.352,6.409-16.758,20.079-21.094,31.464
		C165.463,195.258,161.971,224.953,162.311,256.708z M432.171,306.504c-0.892-11.391-0.534-20.799-7.594-30.052
		c-10.979-14.389-29.611-12.46-36.269,8.005c-5.564,17.105-2.306,39.219,1.554,56.706c2.371,10.743,5.969,21.031,11.525,30.578
		c1.764,3.031,2.53,5.187,4.725,3.709c0.849-0.572,1.588-1.386,2.2-2.22c7.67-10.445,13.225-21.955,17.381-34.203
		C429.276,328.468,431.671,317.712,432.171,306.504z M181.336,273.114c-11.748-13.08-31.758-3.942-35.95,17.618
		c-5.136,26.414,6.121,59.986,22.249,82.346c0.33,0.458,0.651,0.927,1.021,1.351c1.774,2.03,3.397,1.997,4.634-0.332
		c2.512-4.732,5.243-9.4,7.205-14.362C189.526,336.882,197.812,291.459,181.336,273.114z M253.07,439.431
		c0.287,0.486,0.602,0.957,0.931,1.415c1.322,1.84,1.806,1.99,3.906,1.239c0.597-0.214,1.2-0.418,1.784-0.664
		c4.366-1.842,8.521-1.49,12.502,1.11c0.88,0.575,1.829,1.085,2.812,1.45c1.217,0.452,1.948,0.138,2.265-1.13
		c1.352-5.4-0.461-11.884-2.104-17.199c-1.886-6.1-5.801-2.534-27.042-9.257c-0.83-0.263-1.872-0.34-2.685-0.085
		c-8.264,2.588-16.815,7.255-16.112,15.853c0.183,2.231,2.282,2.452,4.503,2.257C241.898,433.709,248.625,431.897,253.07,439.431z
		 M298.693,442.556c0.405,1.589,1.175,1.943,2.684,1.314c3.244-1.352,7.049-5.447,14.322-2.707c6.014,2.265,4.574,1.894,8.359-3.2
		c3.869-5.207,8.295-4.106,15.139-3.815c3.838,0.163,7.342,1.186,7.573-2.094c0.599-8.47-7.888-13.211-16.031-15.705
		c-2.144-0.657-6.257,1.275-10.828,2.295c-14.943,3.333-17.335,2.492-18.643,6.124C299.546,429.553,297.441,437.644,298.693,442.556
		z"/>
	<path fill="#1A1A1A" d="M191.406,226.238c0.373-13.068,5.698-25.35,17.226-34.506c27.894-22.153,68.6-1.519,68.443,36.737
		c-0.017,4.146-0.03,4.1,4.16,4.579c4.88,0.559,9.736,0.383,14.577-0.323c2.457-0.358,2.955-0.967,3.066-3.468
		c0.2-4.521,0.46-9.031,1.659-13.428c8.889-32.609,44.983-42.663,67.788-23.41c10.084,8.513,15.464,19.506,16.209,32.631
		c2.204,38.822-39.466,61.394-68.031,38.934c-2.098-1.649-2.874-1.744-4.013,1.198c-3.244,8.378-9.562,22.196-15.448,28.82
		c-1.521,1.712-3.381,3.231-5.342,4.421c-3.123,1.897-6.525,1.884-9.673,0.009c-7.746-4.614-10.976-11.733-20.813-28.374
		c-0.251-0.425-0.452-0.88-0.692-1.311c-3.304-5.923-5.227,0.337-16.262,2.783c-17.253,3.824-31.552-1.295-42.771-14.743
		C194.539,248.459,191.477,238.577,191.406,226.238z M232.959,265.013c33.385-0.078,47.381-40.295,26.429-63.206
		c-13.876-15.174-36.898-14.998-50.544,0.386C187.712,226.018,203.673,264.205,232.959,265.013z M361.835,258.378
		c18.772-13.852,20.187-42.961,2.87-58.766c-14.089-12.859-34.93-11.966-47.879,2.051c-11.64,12.6-13.355,32.329-3.904,46.944
		C325.096,267.432,347.173,269.197,361.835,258.378z M307.273,256.572c-0.877-3.55,0.716-0.311-5.905-13.844
		c-1.163-2.376-1.75-2.652-4.32-2.305c-18.516,2.499-20.719-2.615-22.33,2.054c-1.696,4.916-4.169,9.391-7.145,13.644
		c-1.816,2.596-2.083,5.415-0.516,8.387c3.72,7.056,10.524,19.526,16.152,25.259c2.882,2.936,4.65,2.904,7.409-0.178
		c6.465-7.222,12.728-21.931,16.128-31.044C306.965,257.958,307.074,257.328,307.273,256.572z"/>
	<path fill="#1A1A1A" d="M288.627,376.256c-6.809-0.18-12.424-2.759-16.968-7.653c-4.214-4.538-6.346-10.308-6.382-12.413
		c-0.071-4.114,5.198-5.289,7.106-1.848c0.618,1.114,1.367,4.797,4.555,8.531c7.707,9.027,21.434,7.138,28.88-6.048
		c0.416-0.736,0.761-1.522,1.25-2.206c2.861-4,8.745-0.403,6.458,4.154c-4.757,9.483-12.085,15.944-22.686,17.348
		C290.075,376.222,289.294,376.219,288.627,376.256z"/>
	<path fill="#1A1A1A" d="M241.573,345.398c-9.74,0.154-19.76-6.803-22.745-18.442c-1.356-5.288,4.9-7.231,6.933-3.348
		c0.957,1.828,1.694,8.296,8.747,12.207c7.871,4.365,17.473,0.787,21.009-7.813c0.401-0.975,0.635-2.018,0.985-3.015
		c1.83-5.218,8.574-2.96,7.443,2.016C261.343,338.454,251.531,345.61,241.573,345.398z"/>
	<path fill="#1A1A1A" d="M306.868,323.931c-3.071-4.132,1.916-8.53,5.357-5.472c0.626,0.556,1.123,1.259,1.675,1.899
		c5.445,6.324,13.481,6.807,19.58,1.104c1.174-1.097,2.161-2.411,3.139-3.696c1.71-2.247,3.941-2.896,5.806-1.595
		c1.879,1.311,2.151,3.642,0.577,5.996c-3.627,5.424-8.436,9.236-14.94,10.606C320.94,334.274,312.657,331.721,306.868,323.931z"/>
	<path fill="#1A1A1A" d="M226.721,371.363c-8.975-0.364-14.693-7.384-16.166-13.254c-1.2-4.784,4.993-7.341,7.304-2.391
		c0.682,1.461,1.308,3.002,2.279,4.261c1.823,2.366,4.315,3.677,7.381,3.338c3.324-0.368,5.264-2.479,6.324-5.509
		c0.232-0.664,0.326-1.376,0.546-2.045c1.614-4.908,8.18-3.032,7.458,1.56c-0.975,6.196-4.209,10.718-10.196,12.953
		C230.09,370.86,228.368,371.013,226.721,371.363z"/>
	<path fill="#1A1A1A" d="M314.028,383.762c-3.06-4.216,2.243-8.932,6.095-4.706c0.569,0.625,1.085,1.304,1.694,1.887
		c3.404,3.254,7.938,3.668,11.772,0.929c1.297-0.927,2.336-2.22,3.461-3.377c0.439-0.452,0.743-1.036,1.186-1.483
		c3.1-3.122,8.196,0.267,5.985,4.654C339.711,390.611,323.776,397.192,314.028,383.762z"/>
	<path fill="#1A1A1A" d="M211.77,226.618c0.184-17.521,17.669-28.984,32.668-20.407c13.345,7.632,16.472,26.909,6.223,38.366
		C237.268,259.548,212.255,250.374,211.77,226.618z M223.306,234.982c-0.009,4.942,3.905,8.925,8.796,8.951
		c4.856,0.026,8.919-3.996,8.941-8.85c0.022-4.895-3.946-8.897-8.84-8.915C227.259,226.15,223.315,230.057,223.306,234.982z
		 M239,222.469c3.459-0.04,6.169-2.764,6.183-6.215c0.014-3.534-2.789-6.318-6.33-6.284c-3.525,0.033-6.26,2.88-6.179,6.432
		C232.753,219.828,235.548,222.509,239,222.469z"/>
	<path fill="#1A1A1A" d="M355.951,246.107c-10.166,9.214-25.514,7.059-32.811-4.558c-6.286-10.009-4.601-23.715,3.924-31.912
		c11.055-10.63,28.328-7.373,34.858,6.593C366.409,225.825,364.663,238.211,355.951,246.107z M352.776,234.902
		c-0.044-4.912-4.026-8.786-8.978-8.732c-4.883,0.053-8.836,4.112-8.759,8.994c0.077,4.861,4.175,8.845,9.021,8.768
		C348.959,243.855,352.821,239.854,352.776,234.902z M337.147,222.471c3.445,0.01,6.213-2.701,6.261-6.134
		c0.05-3.548-2.714-6.366-6.245-6.367c-3.458-0.001-6.196,2.683-6.261,6.138C330.836,219.645,333.599,222.46,337.147,222.471z"/>
</g>
</svg>
